<svg id="orgchart" xmlns="http://www.w3.org/2000/svg" viewBox="0 0 1054 322"><defs><style>.cls-1{opacity:0.2;}.cls-2{fill:#e64030;}.cls-3{font-size:10px;}.cls-3,.cls-8{fill:#fff;}.cls-11,.cls-3{font-family:RobotoCondensed-Regular, Roboto Condensed;}.cls-4{letter-spacing:-0.01em;}.cls-5{letter-spacing:-0.01em;}.cls-6{letter-spacing:-0.02em;}.cls-7{letter-spacing:0.01em;}.cls-15,.cls-9{fill:none;stroke:#fff;stroke-miterlimit:10;}.cls-9{stroke-width:0.25px;}.cls-10{letter-spacing:-0.01em;}.cls-11{font-size:8px;fill:#003b80;}.cls-12{letter-spacing:-0.01em;}.cls-13{letter-spacing:-0.02em;}.cls-14{letter-spacing:-0.02em;}.cls-16{fill:#0075ff;}.cls-17{letter-spacing:0.01em;}.cls-18{letter-spacing:0.02em;}.cls-19{letter-spacing:0.01em;}.cls-20{letter-spacing:-0.01em;}.cls-21{letter-spacing:-0.01em;}.cls-22{letter-spacing:0em;}.cls-23{letter-spacing:-0.02em;}.cls-24{letter-spacing:0.02em;}.cls-25{letter-spacing:-0.04em;}.cls-26{letter-spacing:-0.01em;}.cls-27{letter-spacing:-0.01em;}.cls-28{letter-spacing:0em;}.cls-29{letter-spacing:-0.01em;}</style></defs><title>Artboard 1</title><g id="executiveDirector"><rect class="cls-1" x="468.25" y="16.33" width="112.05" height="33.09"/><rect class="cls-2" x="465.74" y="13" width="112.05" height="33.09"/><text class="cls-3" transform="translate(480.89 26.56)">Executive Direc<tspan class="cls-4" x="60.36" y="0">t</tspan><tspan x="63.21" y="0">or of</tspan><tspan x="-11.62" y="12.01">Beh</tspan><tspan class="cls-5" x="3.36" y="12.01">a</tspan><tspan x="8.08" y="12.01">vio</tspan><tspan class="cls-6" x="19.67" y="12.01">r</tspan><tspan x="22.52" y="12.01">al Health Se</tspan><tspan class="cls-7" x="69.81" y="12.01">r</tspan><tspan x="72.94" y="12.01">vices</tspan></text></g><g id="lines"><rect class="cls-8" x="91.44" y="154.32" width="0.33" height="44" transform="translate(267.93 84.71) rotate(90)"/><rect class="cls-8" x="91.44" y="185.3" width="0.33" height="44" transform="translate(298.9 115.69) rotate(90)"/><rect class="cls-8" x="91.44" y="225.25" width="0.33" height="44" transform="translate(338.86 155.64) rotate(90)"/><line class="cls-9" x1="81" y1="154" x2="81" y2="247.12"/></g><g id="group_title"><rect class="cls-1" x="28.07" y="125.22" width="112.05" height="33.09"/><rect x="25.56" y="121.89" width="112.05" height="33.09"/><text class="cls-3" transform="translate(35.48 135.45)">Adult Clinical Se<tspan class="cls-7" x="64.35" y="0">r</tspan><tspan x="67.48" y="0">vices </tspan><tspan x="-7.71" y="12.01">and Mental Health Direc</tspan><tspan class="cls-10" x="86.99" y="12.01">t</tspan><tspan x="89.85" y="12.01">or</tspan></text></g><rect class="cls-1" x="15.15" y="168.8" width="60.49" height="16.64"/><rect class="cls-8" x="13.8" y="168.8" width="60.49" height="14.77"/><text class="cls-11" transform="translate(22.16 177.78)"><tspan xml:space="preserve"> Psychologist</tspan></text><rect class="cls-1" x="15.49" y="198.43" width="60.49" height="25.92"/><rect class="cls-8" x="13.8" y="196.05" width="60.49" height="25.92"/><text class="cls-11" transform="translate(28.74 204.32)">Licensed<tspan x="-5.72" y="8">P</tspan><tspan class="cls-12" x="-1.29" y="8">r</tspan><tspan x="1.06" y="8">ofessional</tspan><tspan x="-3.65" y="16">Counselors</tspan></text><rect class="cls-1" x="15.49" y="236.68" width="60.49" height="25.92"/><rect class="cls-8" x="13.8" y="234.29" width="60.49" height="25.92"/><text class="cls-11" transform="translate(27.05 248.62)">Physicians</text><rect class="cls-1" x="90.07" y="236.68" width="60.49" height="25.92"/><rect class="cls-8" x="88.37" y="234.29" width="60.49" height="25.92"/><text class="cls-11" transform="translate(107.98 249)">Nurses</text><g id="social_work"><rect class="cls-1" x="92.74" y="198.63" width="60.49" height="25.92"/><rect class="cls-8" x="91.05" y="196.24" width="60.49" height="25.92"/><g id="social_work_team" data-name="social work team"><text class="cls-11" transform="translate(95.17 206.32)">4-Person Social<tspan x="5.98" y="8"> </tspan><tspan class="cls-13" x="7.81" y="8">W</tspan><tspan x="13.79" y="8">ork</tspan><tspan class="cls-14" x="23.84" y="8"> </tspan><tspan x="25.52" y="8">Team</tspan></text></g></g><rect class="cls-1" x="91.72" y="168.8" width="60.49" height="16.64"/><rect class="cls-8" x="90.37" y="168.8" width="60.49" height="14.77"/><text class="cls-11" transform="translate(97.76 177.78)"><tspan xml:space="preserve"> Psychiatrists</tspan></text><rect id="outline" class="cls-15" x="6.39" y="98.29" width="150.84" height="210.5"/><g id="title"><rect class="cls-1" x="20.02" y="88.01" width="118.79" height="26.73"/><rect class="cls-16" x="18.02" y="86.01" width="118.79" height="26.73"/><text class="cls-3" transform="translate(25.14 95.63)">Adult Clinical Se<tspan class="cls-17" x="64.35" y="0">r</tspan><tspan x="67.48" y="0">vices and</tspan><tspan x="-0.66" y="12.01">Mental Health Depa</tspan><tspan class="cls-18" x="76.92" y="12.01">r</tspan><tspan x="80.21" y="12.01">tment </tspan></text></g><g id="lines-2" data-name="lines"><line class="cls-9" x1="254" y1="144" x2="254" y2="233"/><line class="cls-9" x1="245" y1="185" x2="263" y2="185"/></g><rect class="cls-1" x="190.74" y="171.64" width="60.49" height="28.74"/><rect class="cls-8" x="189.04" y="169" width="60.49" height="28.74"/><text class="cls-11" transform="translate(203.11 176)">Business <tspan x="-2.86" y="9.6">Ope</tspan><tspan class="cls-14" x="9.64" y="9.6">r</tspan><tspan x="11.91" y="9.6">ations </tspan><tspan x="-2.47" y="19.2">Supe</tspan><tspan class="cls-19" x="13.23" y="19.2">r</tspan><tspan x="15.74" y="19.2">visor</tspan></text><rect class="cls-1" x="259.84" y="171.64" width="64.16" height="28.74"/><rect class="cls-8" x="258.04" y="169" width="64.16" height="28.74"/><text class="cls-11" transform="translate(259.43 176)">Accounts <tspan class="cls-20" x="31.59" y="0">P</tspan><tspan x="35.98" y="0" xml:space="preserve">ayables  </tspan><tspan x="9.78" y="9.6">/Recei</tspan><tspan class="cls-21" x="30.01" y="9.6">v</tspan><tspan x="33.37" y="9.6">ables </tspan><tspan x="13.3" y="19.2">Supe</tspan><tspan class="cls-19" x="29" y="19.2">r</tspan><tspan x="31.5" y="19.2">visor</tspan></text><rect class="cls-1" x="227.74" y="231.6" width="60.49" height="31.92"/><rect class="cls-8" x="226.04" y="229.21" width="60.49" height="31.92"/><text class="cls-11" transform="translate(230.02 237.54)">Medical Records <tspan x="4.47" y="8">and Expenses </tspan><tspan x="14.52" y="16">Analyst</tspan></text><rect id="outline-2" data-name="outline" class="cls-15" x="181.63" y="98.29" width="150.84" height="210.5"/><g id="director"><rect class="cls-1" x="203.31" y="125.22" width="112.05" height="25.09"/><rect x="200.81" y="121.89" width="112.05" height="25.09"/><text class="cls-3" transform="translate(222.27 137.45)">Financial Direc<tspan class="cls-4" x="58.21" y="0">t</tspan><tspan x="61.07" y="0">or</tspan></text></g><g id="title-2" data-name="title"><rect class="cls-1" x="195.6" y="88.01" width="118.79" height="26.73"/><rect class="cls-16" x="193.6" y="86.01" width="118.79" height="26.73"/><text class="cls-3" transform="translate(213.02 102.63)">Finance Depa<tspan class="cls-18" x="53.29" y="0">r</tspan><tspan class="cls-22" x="56.58" y="0">tment</tspan></text></g><rect class="cls-1" x="590.68" y="44.27" width="60.49" height="25.92"/><rect class="cls-8" x="588.99" y="41.89" width="60.49" height="25.92"/><text class="cls-11" transform="translate(604.15 49.21)">Executive <tspan x="-7.73" y="8">Administ</tspan><tspan class="cls-14" x="20.41" y="8">r</tspan><tspan x="22.69" y="8">ative </tspan><tspan x="0.18" y="16">Assistant</tspan></text><g id="lines-3" data-name="lines"><line class="cls-9" x1="429" y1="145" x2="429" y2="220"/><line class="cls-9" x1="415" y1="182" x2="439" y2="182"/><line class="cls-9" x1="415" y1="220" x2="439" y2="220"/></g><g id="director-2" data-name="director"><rect class="cls-1" x="378.56" y="125.22" width="112.05" height="25.09"/><rect x="376.06" y="121.89" width="112.05" height="25.09"/><text class="cls-3" transform="translate(411.54 137.45)">I<tspan class="cls-23" x="2.5" y="0">T</tspan><tspan x="7.51" y="0" xml:space="preserve"> Direc</tspan><tspan class="cls-4" x="30.16" y="0">t</tspan><tspan x="33.01" y="0">or</tspan></text></g><rect class="cls-1" x="363.99" y="205.28" width="60.49" height="34.72"/><rect class="cls-8" x="362.29" y="202.08" width="60.49" height="34.72"/><text class="cls-11" transform="translate(373.65 211.41)">Information <tspan x="4.95" y="9.6">Systems </tspan><tspan x="1.19" y="19.2">Technician</tspan></text><rect class="cls-1" x="438.78" y="205.47" width="61.49" height="25.92"/><rect class="cls-8" x="437.08" y="203.08" width="61.49" height="25.92"/><text class="cls-11" transform="translate(449.2 213.47)">Information <tspan x="-7.71" y="8">Systems Analyst</tspan></text><rect class="cls-1" x="362.99" y="171.6" width="60.49" height="21.92"/><rect class="cls-8" x="361.29" y="169.21" width="60.49" height="21.92"/><text class="cls-11" transform="translate(364.7 181.54)">Data Coordina<tspan class="cls-12" x="44.93" y="0">t</tspan><tspan x="47.21" y="0">or</tspan></text><rect class="cls-1" x="440.28" y="171.6" width="60.49" height="21.92"/><rect class="cls-8" x="438.58" y="169.21" width="60.49" height="21.92"/><text class="cls-11" transform="translate(441.31 178.54)">Network Systems <tspan x="15.78" y="8">Analyst</tspan></text><rect id="outline-3" data-name="outline" class="cls-15" x="356.88" y="98.29" width="150.84" height="210.5"/><g id="it-department"><rect class="cls-1" x="373.88" y="88.01" width="118.79" height="26.73"/><rect class="cls-16" x="371.88" y="86.01" width="118.79" height="26.73"/><text class="cls-3" transform="translate(403.18 102.63)">I<tspan class="cls-23" x="2.5" y="0">T</tspan><tspan x="7.51" y="0" xml:space="preserve"> Depa</tspan><tspan class="cls-24" x="29.93" y="0">r</tspan><tspan class="cls-22" x="33.21" y="0">tment</tspan></text></g><g id="lines-4" data-name="lines"><line class="cls-9" x1="606.5" y1="143.5" x2="606.5" y2="254.32"/><line class="cls-9" x1="592" y1="181" x2="622" y2="181"/><line class="cls-9" x1="592" y1="219" x2="622" y2="219"/></g><rect class="cls-1" x="541.09" y="208.6" width="60.49" height="29.92"/><rect class="cls-8" x="539.39" y="206.21" width="60.49" height="29.92"/><text class="cls-11" transform="translate(556.88 214.22)">Building <tspan x="-14.35" y="8">Maintenance and </tspan><tspan x="-8.92" y="16">Safety Officer</tspan></text><rect class="cls-1" x="613.09" y="209.6" width="60.49" height="29.92"/><rect class="cls-8" x="611.39" y="207.21" width="60.49" height="29.92"/><text class="cls-11" transform="translate(625.88 215.22)"><tspan class="cls-25">T</tspan><tspan class="cls-14" x="3.87" y="0">r</tspan><tspan x="6.15" y="0">aining &amp; </tspan><tspan x="-4.86" y="8">D</tspan><tspan class="cls-26" x="-0.29" y="8">e</tspan><tspan x="3.4" y="8">velopment </tspan><tspan x="-2.87" y="16">Coordina</tspan><tspan class="cls-12" x="25.64" y="16">t</tspan><tspan x="27.92" y="16">or</tspan></text><rect id="outline-4" data-name="outline" class="cls-15" x="532.13" y="98.29" width="150.84" height="210.5"/><g id="director-3" data-name="director"><rect class="cls-1" x="554.76" y="125.22" width="112.05" height="33.09"/><rect x="552.26" y="121.89" width="112.05" height="33.09"/><text class="cls-3" transform="translate(586.26 135.45)">Direc<tspan class="cls-4" x="20.35" y="0">t</tspan><tspan x="23.21" y="0">or of </tspan><tspan x="-14.98" y="12.01">Human Resou</tspan><tspan class="cls-27" x="39.92" y="12.01">r</tspan><tspan class="cls-28" x="42.87" y="12.01">ces </tspan></text></g><g id="titleHR"><rect class="cls-1" x="546.88" y="88.01" width="118.79" height="26.73"/><rect class="cls-16" x="544.88" y="86.01" width="118.79" height="26.73"/><text class="cls-3" transform="translate(573.2 102.63)">HR Depa<tspan class="cls-18" x="33.93" y="0">r</tspan><tspan x="37.21" y="0">tment</tspan></text></g><rect class="cls-1" x="613.03" y="171.47" width="61.49" height="25.92"/><rect class="cls-8" x="611.33" y="169.08" width="61.49" height="25.92"/><text class="cls-11" transform="translate(618.39 184.47)"><tspan class="cls-20">P</tspan><tspan x="4.39" y="0">ay</tspan><tspan class="cls-12" x="11.55" y="0">r</tspan><tspan x="13.91" y="0">oll Analyst</tspan></text><rect class="cls-1" x="541.53" y="171.6" width="60.49" height="24.92"/><rect class="cls-8" x="539.83" y="169.21" width="60.49" height="24.92"/><text class="cls-11" transform="translate(550.98 180.22)">Recruitment <tspan x="3.66" y="8">Specialist</tspan></text><rect class="cls-1" x="577.53" y="253.9" width="60.49" height="19.92"/><rect class="cls-8" x="575.83" y="251.52" width="60.49" height="19.92"/><text class="cls-11" transform="translate(590.15 262.31)">Cus<tspan class="cls-12" x="12.05" y="0">t</tspan><tspan x="14.33" y="0">odian</tspan></text><g id="lines-5" data-name="lines"><line class="cls-9" x1="780" y1="156" x2="780" y2="218"/><line class="cls-9" x1="760" y1="179" x2="797" y2="179"/><line class="cls-9" x1="760" y1="218" x2="797" y2="218"/></g><rect class="cls-1" x="714.33" y="205.6" width="60.49" height="29.92"/><rect class="cls-8" x="712.64" y="203.21" width="60.49" height="29.92"/><text class="cls-11" transform="translate(724.95 212.22)">Community <tspan x="1.45" y="7">Resou</tspan><tspan class="cls-29" x="20.96" y="7">r</tspan><tspan x="23.32" y="7">ces </tspan><tspan x="2.49" y="14">Specialist </tspan></text><rect class="cls-1" x="788.93" y="205.6" width="60.49" height="29.92"/><rect class="cls-8" x="787.23" y="203.21" width="60.49" height="29.92"/><text class="cls-11" transform="translate(799.55 212.22)">Community<tspan x="3.64" y="7" xml:space="preserve"> Se</tspan><tspan class="cls-19" x="13.37" y="7">r</tspan><tspan x="15.87" y="7">vices </tspan><tspan x="6.51" y="14">Liaison</tspan></text><rect class="cls-1" x="714.33" y="166.07" width="60.49" height="29.92"/><rect class="cls-8" x="712.64" y="163.68" width="60.49" height="29.92"/><text class="cls-11" transform="translate(722.29 171.69)">Home Health<tspan x="-3.95" y="8" xml:space="preserve"> Care Specialist </tspan><tspan x="11.71" y="16">Team</tspan></text><rect class="cls-1" x="788.93" y="166.07" width="60.49" height="29.92"/><rect class="cls-8" x="787.23" y="163.68" width="60.49" height="29.92"/><text class="cls-11" transform="translate(799.55 171.69)">Community <tspan x="3.63" y="7">Outreach</tspan><tspan x="-1.61" y="14" xml:space="preserve"> Coordina</tspan><tspan class="cls-12" x="28.73" y="14">t</tspan><tspan x="31.01" y="14">or</tspan></text><rect id="outline-5" data-name="outline" class="cls-15" x="707.38" y="98.29" width="150.84" height="210.5"/><g id="director-4" data-name="director"><rect class="cls-1" x="723.76" y="125.22" width="112.05" height="33.09"/><rect x="721.26" y="121.89" width="112.05" height="33.09"/><text class="cls-3" transform="translate(740.25 135.45)">Community-Based <tspan x="3.53" y="12.01">Se</tspan><tspan class="cls-17" x="13.4" y="12.01">r</tspan><tspan x="16.53" y="12.01">vices Direc</tspan><tspan class="cls-4" x="59.61" y="12.01">t</tspan><tspan x="62.47" y="12.01">or</tspan></text></g><g id="title_cbsd" data-name="title cbsd"><rect class="cls-1" x="724.88" y="88.01" width="118.79" height="26.73"/><rect class="cls-16" x="722.88" y="86.01" width="118.79" height="26.73"/><text class="cls-3" transform="translate(724.78 95.63)">Community-Based Se<tspan class="cls-17" x="83.94" y="0">r</tspan><tspan x="87.07" y="0">vices</tspan><tspan x="14.1" y="12.01" xml:space="preserve"> Depa</tspan><tspan class="cls-18" x="36.51" y="12.01">r</tspan><tspan x="39.8" y="12.01">tment (CBSD)</tspan></text></g><g id="director-5" data-name="director"><rect class="cls-1" x="899.01" y="125.22" width="112.05" height="33.09"/><rect x="896.51" y="121.89" width="112.05" height="33.09"/><text class="cls-3" transform="translate(909.54 135.45)">Direc<tspan class="cls-4" x="20.35" y="0">t</tspan><tspan x="23.21" y="0">or of Regula</tspan><tspan class="cls-4" x="70.89" y="0">t</tspan><tspan x="73.75" y="0">ory</tspan><tspan x="-3.33" y="12.01">Affairs and Compliance</tspan></text></g><rect id="ouline" class="cls-15" x="882.62" y="98.29" width="150.84" height="210.5"/><g id="title-3" data-name="title"><rect class="cls-1" x="899.65" y="88.01" width="118.79" height="26.73"/><rect class="cls-16" x="897.65" y="86.01" width="118.79" height="26.73"/><text class="cls-3" transform="translate(909.84 95.63)">Regula<tspan class="cls-4" x="26.84" y="0">t</tspan><tspan x="29.7" y="0">ory Affairs and</tspan><tspan x="7.49" y="12.01">Compliance Office</tspan></text></g><g id="conecttions"><polyline class="cls-15" points="521 48 521 75 75 75 75 84"/><polyline class="cls-15" points="521 75 958 75 958 84"/><line class="cls-15" x1="432.27" y1="75.75" x2="432.27" y2="83.5"/><line class="cls-15" x1="252.79" y1="75.75" x2="252.79" y2="83.5"/><line class="cls-15" x1="605.27" y1="75.75" x2="605.27" y2="83.5"/><line class="cls-15" x1="783.27" y1="75.75" x2="783.27" y2="83.5"/><line class="cls-15" x1="521" y1="60" x2="589" y2="60"/></g></svg>