<svg xmlns="http://www.w3.org/2000/svg" width="25" height="25" viewBox="0 0 25 25">
  <path id="link" d="M12.2.8C5.8.8.5 6.1.5 12.6s5.2 11.7 11.7 11.7S23.9 19 23.9 12.6 18.7.8 12.2.8zm-.8 18.6c-1.7 1.7-4.4 1.7-6.1 0s-1.7-4.4 0-6.1l3.1-3.1c1.7-1.7 4.4-1.7 6.1 0 .3.3.5.6.7.9l-1.4 1.4-.2.2c-.1-.3-.3-.7-.5-.9-.8-.8-2.2-.8-3.1 0l-3.1 3.1c-.8.8-.8 2.2 0 3.1.8.8 2.2.8 3.1 0l1.1-1.1c.9.3 1.8.4 2.8.3l-2.5 2.2zm7.7-7.6l-3.1 3c-1.7 1.7-4.4 1.7-6.1 0-.3-.3-.5-.6-.7-.9l1.4-1.4c.1-.1.2-.1.2-.2.1.3.3.7.5.9.8.8 2.2.8 3.1 0l3.1-3.1c.8-.8.8-2.2 0-3.1-.8-.8-2.2-.8-3.1 0l-1.1 1.1c-.9-.3-1.8-.4-2.8-.3L13 5.7c1.7-1.7 4.4-1.7 6.1 0 1.7 1.7 1.7 4.4 0 6.1z"/>
  <g id="document">
    <path d="M14.7 5.5v2.8h2.9z"/>
    <path d="M12.2.8C5.8.8.5 6.1.5 12.6s5.2 11.7 11.7 11.7S23.9 19 23.9 12.6 18.7.8 12.2.8zm6.3 19.7H6v-16h8.6l3.9 3.9v12.1z"/>
  </g>
  <path id="video" d="M12.2.8C5.8.8.5 6.1.5 12.6s5.2 11.7 11.7 11.7S23.9 19 23.9 12.6 18.7.8 12.2.8zm6.7 12.4L7.5 19.8c-.5.3-1-.1-1-.6V6c0-.5.6-.9 1-.6L19 12c.4.2.4.9-.1 1.2z"/>
  <path id="audio" d="M12.2.8C5.8.8.5 6.1.5 12.6s5.2 11.7 11.7 11.7S23.9 19 23.9 12.6 18.7.8 12.2.8zm0 16.4c0 .3-.2.5-.4.6-.1 0-.2.1-.3.1-.2 0-.3-.1-.4-.2l-3.7-3h-2c-.4 0-.7-.3-.7-.7v-2.7c0-.4.3-.7.7-.7h2l3.7-3.1c.2-.2.5-.2.7-.1.2.1.4.4.4.6v9.2zm2.6-1.1c-.2 0-.4-.1-.5-.2l-.1-.1c-.2-.2-.3-.6-.1-.9.5-.7.8-1.5.8-2.3 0-.9-.3-1.8-.9-2.5-.2-.3-.2-.7 0-.9l.1-.1c.2-.1.4-.1.6-.1.2 0 .4.1.5.2.8 1 1.2 2.2 1.2 3.4 0 1.2-.4 2.3-1.1 3.2-.1.2-.3.3-.5.3zm2.8 2.1c-.1.1-.3.2-.5.2s-.4-.1-.5-.2l-.1-.1c-.2-.2-.3-.6 0-.9 1.1-1.3 1.7-2.9 1.7-4.6 0-1.8-.6-3.4-1.8-4.8-.2-.3-.2-.7 0-.9l.1-.1c.1-.1.3-.2.5-.2s.4.1.5.2c1.4 1.6 2.2 3.6 2.2 5.7-.1 2.2-.8 4.2-2.1 5.7z"/>
</svg>
