<?xml version="1.0" encoding="utf-8"?>
<!-- Generator: Adobe Illustrator 21.0.0, SVG Export Plug-In . SVG Version: 6.00 Build 0)  -->
<!DOCTYPE svg PUBLIC "-//W3C//DTD SVG 1.1//EN" "http://www.w3.org/Graphics/SVG/1.1/DTD/svg11.dtd">
<svg version="1.1" xmlns="http://www.w3.org/2000/svg" xmlns:xlink="http://www.w3.org/1999/xlink" x="0px" y="0px" width="1054px"
	 height="322px" viewBox="0 0 1054 322" style="enable-background:new 0 0 1054 322;" xml:space="preserve">
<style type="text/css">
	.st0{fill:#183F63;stroke:#000000;stroke-miterlimit:10;}
	.st1{opacity:0.2;}
	.st2{fill:#E64030;}
	.st3{fill:#FFFFFF;}
	.st4{font-family:'RobotoCondensed-Regular';}
	.st5{font-size:10.0047px;}
	.st6{fill:none;stroke:#FFFFFF;stroke-miterlimit:10;}
	.st7{fill:#003B80;}
	.st8{font-size:8px;}
	.st9{fill:none;}
</style>
<g id="Layer_4">
	<rect x="-29.5" y="-101.5" class="st0" width="1304" height="499"/>
	<rect x="1331.5" y="858.5" class="st0" width="1" height="10"/>
</g>
<g id="orgchart">
	<g id="executiveDirector">
		<rect x="468.2" y="16.3" class="st1" width="112" height="33.1"/>
		<rect x="465.7" y="13" class="st2" width="112" height="33.1"/>
		<text transform="matrix(1 0 0 1 480.8403 26.5605)"><tspan x="0" y="0" class="st3 st4 st5">Executive Director of </tspan><tspan x="-11.7" y="12" class="st3 st4 st5">Behavioral Health Services</tspan></text>
	</g>
	<g id="lines_1_">
		
			<rect x="91.4" y="130.3" transform="matrix(-1.836970e-16 1 -1 -1.836970e-16 243.9313 60.7136)" class="st6" width="0.3" height="44"/>
		
			<rect x="91.4" y="161.3" transform="matrix(-1.836970e-16 1 -1 -1.836970e-16 274.904 91.6863)" class="st6" width="0.3" height="44"/>
		
			<rect x="91.4" y="201.3" transform="matrix(-1.836970e-16 1 -1 -1.836970e-16 314.861 131.6433)" class="st6" width="0.3" height="44"/>
		<line class="st6" x1="81" y1="130" x2="81" y2="223.1"/>
	</g>
	<g id="group_x5F_title">
		<rect x="28.1" y="101.2" class="st1" width="112" height="33.1"/>
		<rect x="25.6" y="97.9" width="112" height="33.1"/>
		<text transform="matrix(1 0 0 1 35.5273 111.4512)"><tspan x="0" y="0" class="st3 st4 st5">Adult Clinical Services </tspan><tspan x="-7.8" y="12" class="st3 st4 st5">and Mental Health Director</tspan></text>
	</g>
	<g>
		<rect x="15.1" y="144.8" class="st1" width="60.5" height="16.6"/>
		<rect x="13.8" y="144.8" class="st3" width="60.5" height="14.8"/>
		<g>
			<text transform="matrix(1 0 0 1 22.1579 153.7776)" class="st7 st4 st8"> Psychologist</text>
		</g>
	</g>
	<g>
		<g>
			<rect x="15.5" y="174.4" class="st1" width="60.5" height="25.9"/>
			<rect x="13.8" y="172.1" class="st3" width="60.5" height="25.9"/>
		</g>
		<g>
			<text transform="matrix(1 0 0 1 28.7352 180.3234)"><tspan x="0" y="0" class="st7 st4 st8">Licensed</tspan><tspan x="-5.8" y="8" class="st7 st4 st8">Professional</tspan><tspan x="-3.7" y="16" class="st7 st4 st8">Counselors</tspan></text>
		</g>
	</g>
	<g>
		<g>
			<rect x="15.5" y="212.7" class="st1" width="60.5" height="25.9"/>
			<rect x="13.8" y="210.3" class="st3" width="60.5" height="25.9"/>
		</g>
		<g>
			<rect x="16.5" y="218.6" class="st9" width="55.1" height="19.3"/>
			<text transform="matrix(1 0 0 1 27.0483 224.6184)" class="st7 st4 st8">Physicians</text>
		</g>
	</g>
	<g>
		<g>
			<rect x="90.1" y="212.7" class="st1" width="60.5" height="25.9"/>
			<rect x="88.4" y="210.3" class="st3" width="60.5" height="25.9"/>
		</g>
		<g>
			<rect x="91.6" y="219" class="st9" width="55.1" height="23.3"/>
			<text transform="matrix(1 0 0 1 107.985 225.0001)" class="st7 st4 st8">Nurses</text>
		</g>
	</g>
	<g id="social_x5F_work">
		<rect x="92.7" y="174.6" class="st1" width="60.5" height="25.9"/>
		<rect x="91" y="172.2" class="st3" width="60.5" height="25.9"/>
		<g id="social_work_team">
			<text transform="matrix(1 0 0 1 95.174 182.3234)"><tspan x="0" y="0" class="st7 st4 st8">4-Person Social </tspan><tspan x="5.8" y="8" class="st7 st4 st8"> Work Team</tspan></text>
		</g>
	</g>
	<g>
		<rect x="91.7" y="144.8" class="st1" width="60.5" height="16.6"/>
		<rect x="90.4" y="144.8" class="st3" width="60.5" height="14.8"/>
		<g>
			<text transform="matrix(1 0 0 1 97.7567 153.7776)" class="st7 st4 st8"> Psychiatrists</text>
		</g>
	</g>
	<g id="lines_2_">
		<line class="st6" x1="254" y1="120" x2="254" y2="209"/>
		<line class="st6" x1="245" y1="161" x2="263" y2="161"/>
	</g>
	<g>
		<g>
			<rect x="190.7" y="147.6" class="st1" width="60.5" height="28.7"/>
			<rect x="189" y="145" class="st3" width="60.5" height="28.7"/>
		</g>
		<g>
			<rect x="188" y="146" class="st9" width="58.8" height="26"/>
			<text transform="matrix(1 0 0 1 203.11 151.9999)"><tspan x="0" y="0" class="st7 st4 st8">Business </tspan><tspan x="-2.9" y="9.6" class="st7 st4 st8">Operations </tspan><tspan x="-2.4" y="19.2" class="st7 st4 st8">Supervisor</tspan></text>
		</g>
	</g>
	<g>
		<g>
			<rect x="259.8" y="147.6" class="st1" width="64.2" height="28.7"/>
			<rect x="258" y="145" class="st3" width="64.2" height="28.7"/>
		</g>
		<g>
			<rect x="257" y="146" class="st9" width="65" height="26"/>
			<text transform="matrix(1 0 0 1 259.4045 151.9999)"><tspan x="0" y="0" class="st7 st4 st8">Accounts Payables  </tspan><tspan x="9.8" y="9.6" class="st7 st4 st8">/Receivables </tspan><tspan x="13.4" y="19.2" class="st7 st4 st8">Supervisor</tspan></text>
		</g>
	</g>
	<g>
		<g>
			<g>
				<rect x="227.7" y="207.6" class="st1" width="60.5" height="31.9"/>
				<rect x="226" y="205.2" class="st3" width="60.5" height="31.9"/>
			</g>
			<g>
				<rect x="228.7" y="207.5" class="st9" width="55.1" height="27.9"/>
				<text transform="matrix(1 0 0 1 230.0212 213.5395)"><tspan x="0" y="0" class="st7 st4 st8">Medical Records </tspan><tspan x="4.5" y="8" class="st7 st4 st8">and Expenses </tspan><tspan x="14.5" y="16" class="st7 st4 st8">Analyst</tspan></text>
			</g>
		</g>
	</g>
	<g id="director">
		<rect x="203.3" y="101.2" class="st1" width="112" height="25.1"/>
		<rect x="200.8" y="97.9" width="112" height="25.1"/>
		<text transform="matrix(1 0 0 1 222.2194 113.4512)" class="st3 st4 st5">Financial Director</text>
	</g>
	<g>
		<g>
			<rect x="590.7" y="44.3" class="st1" width="60.5" height="25.9"/>
			<rect x="589" y="41.9" class="st3" width="60.5" height="25.9"/>
		</g>
		<g>
			<rect x="591.7" y="43.2" class="st9" width="55.1" height="23.8"/>
			<text transform="matrix(1 0 0 1 604.1505 49.2114)"><tspan x="0" y="0" class="st7 st4 st8">Executive </tspan><tspan x="-7.8" y="8" class="st7 st4 st8">Administrative  </tspan><tspan x="0.2" y="16" class="st7 st4 st8">Assistant</tspan></text>
		</g>
	</g>
	<g id="lines_3_">
		<line class="st6" x1="429" y1="121" x2="429" y2="196"/>
		<line class="st6" x1="415" y1="158" x2="439" y2="158"/>
		<line class="st6" x1="415" y1="196" x2="439" y2="196"/>
	</g>
	<g id="director_1_">
		<rect x="378.6" y="101.2" class="st1" width="112" height="25.1"/>
		<rect x="376.1" y="97.9" width="112" height="25.1"/>
		<text transform="matrix(1 0 0 1 411.3969 113.4512)" class="st3 st4 st5">IT Director</text>
	</g>
	<g>
		<g>
			<rect x="364" y="181.3" class="st1" width="60.5" height="34.7"/>
			<rect x="362.3" y="178.1" class="st3" width="60.5" height="34.7"/>
		</g>
		<g>
			<rect x="359" y="181.4" class="st9" width="66.1" height="30.6"/>
			<text transform="matrix(1 0 0 1 373.6474 187.4071)"><tspan x="0" y="0" class="st7 st4 st8">Information  </tspan><tspan x="4.9" y="9.6" class="st7 st4 st8">Systems  </tspan><tspan x="1.2" y="19.2" class="st7 st4 st8">Technician</tspan></text>
		</g>
	</g>
	<g>
		<g>
			<rect x="438.8" y="181.5" class="st1" width="61.5" height="25.9"/>
			<rect x="437.1" y="179.1" class="st3" width="61.5" height="25.9"/>
		</g>
		<g>
			<rect x="439.6" y="183.5" class="st9" width="56" height="21.5"/>
			<text transform="matrix(1 0 0 1 449.2027 189.466)"><tspan x="0" y="0" class="st7 st4 st8">Information </tspan><tspan x="-7.7" y="8" class="st7 st4 st8">Systems Analyst</tspan></text>
		</g>
	</g>
	<g>
		<g>
			<g>
				<rect x="363" y="147.6" class="st1" width="60.5" height="21.9"/>
				<rect x="361.3" y="145.2" class="st3" width="60.5" height="21.9"/>
			</g>
			<g>
				<rect x="364" y="151.5" class="st9" width="55.1" height="8.6"/>
				<text transform="matrix(1 0 0 1 364.663 157.5395)" class="st7 st4 st8">Data Coordinator</text>
			</g>
		</g>
	</g>
	<g>
		<g>
			<g>
				<rect x="440.3" y="147.6" class="st1" width="60.5" height="21.9"/>
				<rect x="438.6" y="145.2" class="st3" width="60.5" height="21.9"/>
			</g>
			<g>
				<rect x="441.3" y="148.5" class="st9" width="55.1" height="17.9"/>
				<text transform="matrix(1 0 0 1 441.3061 154.5395)"><tspan x="0" y="0" class="st7 st4 st8">Network Systems </tspan><tspan x="15.8" y="8" class="st7 st4 st8">Analyst</tspan></text>
			</g>
		</g>
	</g>
	<g id="lines_4_">
		<line class="st6" x1="606.5" y1="119.5" x2="606.5" y2="230.3"/>
		<line class="st6" x1="592" y1="157" x2="622" y2="157"/>
		<line class="st6" x1="592" y1="195" x2="622" y2="195"/>
	</g>
	<g>
		<g>
			<g>
				<rect x="541.1" y="184.6" class="st1" width="60.5" height="29.9"/>
				<rect x="539.4" y="182.2" class="st3" width="60.5" height="29.9"/>
			</g>
			<g>
				<rect x="539.4" y="184.2" class="st9" width="60.5" height="25.1"/>
				<text transform="matrix(1 0 0 1 556.8772 190.2242)"><tspan x="0" y="0" class="st7 st4 st8">Building </tspan><tspan x="-14.3" y="8" class="st7 st4 st8">Maintenance and </tspan><tspan x="-8.7" y="16" class="st7 st4 st8">Safety Officer</tspan></text>
			</g>
		</g>
	</g>
	<g>
		<g>
			<g>
				<rect x="613.1" y="185.6" class="st1" width="60.5" height="29.9"/>
				<rect x="611.4" y="183.2" class="st3" width="60.5" height="29.9"/>
			</g>
			<g>
				<rect x="611.4" y="185.2" class="st9" width="60.5" height="25.1"/>
				<text transform="matrix(1 0 0 1 625.6526 191.2242)"><tspan x="0" y="0" class="st7 st4 st8">Training &amp; </tspan><tspan x="-4.7" y="8" class="st7 st4 st8">Development </tspan><tspan x="-2.7" y="16" class="st7 st4 st8">Coordinator</tspan></text>
			</g>
		</g>
	</g>
	<g id="director_2_">
		<rect x="554.8" y="101.2" class="st1" width="112" height="33.1"/>
		<rect x="552.3" y="97.9" width="112" height="33.1"/>
		<text transform="matrix(1 0 0 1 586.2141 111.4512)"><tspan x="0" y="0" class="st3 st4 st5">Director of  </tspan><tspan x="-15" y="12" class="st3 st4 st5">Human Resources </tspan></text>
	</g>
	<g>
		<g>
			<rect x="613" y="147.5" class="st1" width="61.5" height="25.9"/>
			<rect x="611.3" y="145.1" class="st3" width="61.5" height="25.9"/>
		</g>
		<g>
			<rect x="613.8" y="154.5" class="st9" width="56" height="21.5"/>
			<text transform="matrix(1 0 0 1 618.3295 160.466)" class="st7 st4 st8">Payroll Analyst</text>
		</g>
	</g>
	<g>
		<g>
			<g>
				<rect x="541.5" y="147.6" class="st1" width="60.5" height="24.9"/>
				<rect x="539.8" y="145.2" class="st3" width="60.5" height="24.9"/>
			</g>
			<g>
				<rect x="539.8" y="150.2" class="st9" width="60.5" height="19.2"/>
				<text transform="matrix(1 0 0 1 550.9836 156.2242)"><tspan x="0" y="0" class="st7 st4 st8">Recruitment </tspan><tspan x="3.7" y="8" class="st7 st4 st8">Specialist</tspan></text>
			</g>
		</g>
	</g>
	<g>
		<g>
			<g>
				<rect x="577.5" y="229.9" class="st1" width="60.5" height="19.9"/>
				<rect x="575.8" y="227.5" class="st3" width="60.5" height="19.9"/>
			</g>
			<g>
				<rect x="575.8" y="232.3" class="st9" width="60.5" height="10.3"/>
				<text transform="matrix(1 0 0 1 590.1105 238.3078)" class="st7 st4 st8">Custodian</text>
			</g>
		</g>
	</g>
	<g id="lines_5_">
		<line class="st6" x1="780" y1="132" x2="780" y2="194"/>
		<line class="st6" x1="760" y1="155" x2="797" y2="155"/>
		<line class="st6" x1="760" y1="194" x2="797" y2="194"/>
	</g>
	<g>
		<g>
			<g>
				<rect x="714.3" y="181.6" class="st1" width="60.5" height="29.9"/>
				<rect x="712.6" y="179.2" class="st3" width="60.5" height="29.9"/>
			</g>
			<g>
				<rect x="712.6" y="182.2" class="st9" width="60.5" height="25.1"/>
				<text transform="matrix(1 0 0 1 724.9511 188.2242)"><tspan x="0" y="0" class="st7 st4 st8">Community </tspan><tspan x="1.4" y="7" class="st7 st4 st8">Resources  </tspan><tspan x="2.5" y="14" class="st7 st4 st8">Specialist </tspan></text>
			</g>
		</g>
	</g>
	<g>
		<g>
			<g>
				<rect x="788.9" y="181.6" class="st1" width="60.5" height="29.9"/>
				<rect x="787.2" y="179.2" class="st3" width="60.5" height="29.9"/>
			</g>
			<g>
				<rect x="787.2" y="182.2" class="st9" width="60.5" height="25.1"/>
				<text transform="matrix(1 0 0 1 799.5462 188.2242)"><tspan x="0" y="0" class="st7 st4 st8">Community </tspan><tspan x="3.7" y="7" class="st7 st4 st8"> Services  </tspan><tspan x="6.5" y="14" class="st7 st4 st8">Liaison</tspan></text>
			</g>
		</g>
	</g>
	<g>
		<g>
			<g>
				<rect x="714.3" y="142.1" class="st1" width="60.5" height="29.9"/>
				<rect x="712.6" y="139.7" class="st3" width="60.5" height="29.9"/>
			</g>
			<g>
				<rect x="712.6" y="141.7" class="st9" width="60.5" height="25.1"/>
				<text transform="matrix(1 0 0 1 722.2929 147.6942)"><tspan x="0" y="0" class="st7 st4 st8">Home Health </tspan><tspan x="-4" y="8" class="st7 st4 st8"> Care Specialist </tspan><tspan x="11.7" y="16" class="st7 st4 st8">Team</tspan></text>
			</g>
		</g>
	</g>
	<g>
		<g>
			<g>
				<rect x="788.9" y="142.1" class="st1" width="60.5" height="29.9"/>
				<rect x="787.2" y="139.7" class="st3" width="60.5" height="29.9"/>
			</g>
			<g>
				<rect x="787.2" y="141.7" class="st9" width="60.5" height="27.9"/>
				<text transform="matrix(1 0 0 1 799.5462 147.6942)"><tspan x="0" y="0" class="st7 st4 st8">Community </tspan><tspan x="3.6" y="7" class="st7 st4 st8">Outreach </tspan><tspan x="-1.6" y="14" class="st7 st4 st8"> Coordinator</tspan></text>
			</g>
		</g>
	</g>
	<g id="director_3_">
		<rect x="723.8" y="101.2" class="st1" width="112" height="33.1"/>
		<rect x="721.3" y="97.9" width="112" height="33.1"/>
		<text transform="matrix(1 0 0 1 740.2512 111.4512)"><tspan x="0" y="0" class="st3 st4 st5">Community-Based  </tspan><tspan x="3.5" y="12" class="st3 st4 st5">Services Director</tspan></text>
	</g>
	<g id="director_4_">
		<rect x="899" y="101.2" class="st1" width="112" height="33.1"/>
		<rect x="896.5" y="97.9" width="112" height="33.1"/>
		<text transform="matrix(1 0 0 1 909.4462 111.4512)"><tspan x="0" y="0" class="st3 st4 st5">Director of Regulatory </tspan><tspan x="-3.2" y="12" class="st3 st4 st5">Affairs and Compliance</tspan></text>
	</g>
	<g id="Layer_3">
	</g>
	<g id="conecttions">
		<polyline class="st6" points="521,48 521,75 75,75 75,100 		"/>
		<polyline class="st6" points="521,75 958,75 958,100 		"/>
		<line class="st6" x1="432.3" y1="75.8" x2="432.3" y2="99.5"/>
		<line class="st6" x1="252.8" y1="75.8" x2="252.8" y2="99.5"/>
		<line class="st6" x1="605.3" y1="75.8" x2="605.3" y2="99.5"/>
		<line class="st6" x1="783.3" y1="75.8" x2="783.3" y2="99.5"/>
		<line class="st6" x1="521" y1="60" x2="589" y2="60"/>
	</g>
</g>
</svg>
