
<svg xmlns="http://www.w3.org/2000/svg" class="orgchart" width="100%" height="100%"   viewBox="0 0 1054 150">
  <style>
  @import url('https://fonts.googleapis.com/css?family=Roboto+Condensed:300,400,400i,700');

    .st0{opacity:0.2;enable-background:new ;} .st1{fill:#E64030;} .st2{fill:#FFFFFF;} .st3{font-family:'Roboto Condensed', sans-serif;} .st4{font-size:10.0047px;} .st5{fill:none;stroke:#FFFFFF;stroke-width:0.25;stroke-miterlimit:10;} .st6{fill:#FFF;} .st7{font-size:8px;} .st8{fill:none;} .st9{fill:none;stroke:#FFFFFF;stroke-miterlimit:10;} .st10{fill:#0075FF;}
    .outline{fill:#0075FF;stroke:#FFFFFF;stroke-width:1; stroke-miterlimit:10;}

  </style>
  <defs>
  <filter id="dropshadow" x="0" y="0" width="200%" height="200%">
    <feOffset result="offsetResult" in="SourceAlpha" dx="5" dy="5" />
    <feGaussianBlur result="blurResult" in="offsetResult" stdDeviation="2" />
    <feBlend in="SourceGraphic" in2="blurResult" mode="normal" />
  </filter>
   </defs>

  <g id="orgchart">
    <g data-url="#execDirector" class="jobRole">
      <path d="M468.2 16.3h112v33.1h-112z" class="st1"/>
      <path class="roleWrapper"  d="M465.7 13h112v33.1h-112z" class="st2"/>
      <text transform="translate(480.84 26.56)">
        <tspan x="0" y="0" class="st3 st4 st5">Executive Director of </tspan><tspan x="-11.7" y="12" class="st3 st4 st5">Behavioral Health Services</tspan>
      </text>
    </g>
    <g id="lines_1_">
      <path d="M113.63 152.114v.3h-44v-.3zM113.604 183.086v.3h-44v-.3zM113.56 223.043v.3h-44v-.3zM81 130v93.1" class="st6"/>
    </g>
    <g data-url="#acsmhDirector"  class="jobRole">
      <path d="M28.1 101.2h112v33.1h-112z" class="st1"/>
      <path class="roleWrapper" d="M25.6 97.9h112V131h-112z"/>
      <text transform="translate(35.527 111.45)">
        <tspan x="0" y="0" class="st3 st4 st5">Adult Clinical Services </tspan><tspan x="-7.8" y="12" class="st3 st4 st5">and Mental Health Director</tspan>
      </text>
    </g>
    <g data-url="#acsmhPsychologists" class="jobRole">
      <path d="M15.1 144.8h60.5v16.6H15.1z" class="st1"/>
      <path class="roleWrapper" d="M13.8 144.8h60.5v14.8H13.8z" class="st3"/>
      <g>
        <text transform="translate(22.158 153.778)" class="st7 st4 st8">
          Psychologist
        </text>
      </g>
    </g>
    <g data-url="#achsmProfCounselor" class="jobRole">
      <g >
        <path d="M15.5 174.4H76v25.9H15.5z" class="st1"/>
        <path class="roleWrapper"  d="M13.8 172.1h60.5V198H13.8z" class="st3"/>
      </g>
      <g>
        <text transform="translate(28.735 180.323)">
          <tspan x="0" y="0" class="st7 st4 st8">Licensed</tspan><tspan x="-5.8" y="8" class="st7 st4 st8">Professional</tspan><tspan x="-3.7" y="16" class="st7 st4 st8">Counselors</tspan>
        </text>
      </g>
    </g>
    <g data-url="#achsmPhysicians" class="jobRole">
        <path d="M15.5 212.7H76v25.9H15.5z" class="st1"/>
        <path lass="roleWrapper"  d="M13.8 210.3h60.5v25.9H13.8z" class="st3"/>

      
        <text transform="translate(27.048 224.618)" class="st7 st4 st8">
          Physicians
        </text>

    </g>
    <g>
      <g>
        <path d="M90.1 212.7h60.5v25.9H90.1z" class="st1"/>
        <path d="M88.4 210.3h60.5v25.9H88.4z" class="st3"/>
      </g>
      <g>
        <path d="M91.6 219h55.1v23.3H91.6z" class="st9"/>
        <text transform="translate(107.985 225)" class="st7 st4 st8">
          Nurses
        </text>
      </g>
    </g>
    <g id="social_x5F_work">
      <path d="M92.7 174.6h60.5v25.9H92.7z" class="st1"/>
      <path d="M91 172.2h60.5v25.9H91z" class="st3"/>
      <g id="social_work_team">
        <text transform="translate(95.174 182.323)">
          <tspan x="0" y="0" class="st7 st4 st8">4-Person Social </tspan><tspan x="5.8" y="8" class="st7 st4 st8"> Work Team</tspan>
        </text>
      </g>
    </g>
    <g>
      <path d="M91.7 144.8h60.5v16.6H91.7z" class="st1"/>
      <path d="M90.4 144.8h60.5v14.8H90.4z" class="st3"/>
      <g>
        <text transform="translate(97.757 153.778)" class="st7 st4 st8">
          Psychiatrists
        </text>
      </g>
    </g>
    <g id="lines_2_">
      <path d="M254 120v89M245 161h18" class="st6"/>
    </g>
    <g>
      <g>
        <path d="M190.7 147.6h60.5v28.7h-60.5z" class="st1"/>
        <path d="M189 145h60.5v28.7H189z" class="st3"/>
      </g>
      <g>
        <path d="M188 146h58.8v26H188z" class="st9"/>
        <text transform="translate(203.11 152)">
          <tspan x="0" y="0" class="st7 st4 st8">Business </tspan><tspan x="-2.9" y="9.6" class="st7 st4 st8">Operations </tspan><tspan x="-2.4" y="19.2" class="st7 st4 st8">Supervisor</tspan>
        </text>
      </g>
    </g>
    <g>
      <g>
        <path d="M259.8 147.6H324v28.7h-64.2z" class="st1"/>
        <path d="M258 145h64.2v28.7H258z" class="st3"/>
      </g>
      <g>
        <path d="M257 146h65v26h-65z" class="st9"/>
        <text transform="translate(259.404 152)">
          <tspan x="0" y="0" class="st7 st4 st8">Accounts Payables </tspan><tspan x="9.8" y="9.6" class="st7 st4 st8">/Receivables </tspan><tspan x="13.4" y="19.2" class="st7 st4 st8">Supervisor</tspan>
        </text>
      </g>
    </g>
    <g>
      <g>
        <g>
          <path d="M227.7 207.6h60.5v31.9h-60.5z" class="st1"/>
          <path d="M226 205.2h60.5v31.9H226z" class="st3"/>
        </g>
        <g>
          <path d="M228.7 207.5h55.1v27.9h-55.1z" class="st9"/>
          <text transform="translate(230.02 213.54)">
            <tspan x="0" y="0" class="st7 st4 st8">Medical Records </tspan><tspan x="4.5" y="8" class="st7 st4 st8">and Expenses </tspan><tspan x="14.5" y="16" class="st7 st4 st8">Analyst</tspan>
          </text>
        </g>
      </g>
    </g>
    <g id="director">
      <path d="M203.3 101.2h112v25.1h-112z" class="st1"/>
      <path d="M200.8 97.9h112V123h-112z"/>
      <text transform="translate(222.22 113.45)" class="st3 st4 st5">
        Financial Director
      </text>
    </g>
    <g>
      <g>
        <path d="M590.7 44.3h60.5v25.9h-60.5z" class="st1"/>
        <path d="M589 41.9h60.5v25.9H589z" class="st3"/>
      </g>
      <g>
        <path d="M591.7 43.2h55.1V67h-55.1z" class="st9"/>
        <text transform="translate(604.15 49.21)">
          <tspan x="0" y="0" class="st7 st4 st8">Executive </tspan><tspan x="-7.8" y="8" class="st7 st4 st8">Administrative </tspan><tspan x=".2" y="16" class="st7 st4 st8">Assistant</tspan>
        </text>
      </g>
    </g>
    <g id="lines_3_">
      <path d="M429 121v75M415 158h24M415 196h24" class="st6"/>
    </g>
    <g id="director_1_">
      <path d="M378.6 101.2h112v25.1h-112z" class="st1"/>
      <path d="M376.1 97.9h112V123h-112z"/>
      <text transform="translate(411.397 113.45)" class="st3 st4 st5">
        IT Director
      </text>
    </g>
    <g>
      <g>
        <path d="M364 181.3h60.5V216H364z" class="st1"/>
        <path d="M362.3 178.1h60.5v34.7h-60.5z" class="st3"/>
      </g>
      <g>
        <path d="M359 181.4h66.1V212H359z" class="st9"/>
        <text transform="translate(373.647 187.407)">
          <tspan x="0" y="0" class="st7 st4 st8">Information </tspan><tspan x="4.9" y="9.6" class="st7 st4 st8">Systems </tspan><tspan x="1.2" y="19.2" class="st7 st4 st8">Technician</tspan>
        </text>
      </g>
    </g>
    <g>
      <g>
        <path d="M438.8 181.5h61.5v25.9h-61.5z" class="st1"/>
        <path d="M437.1 179.1h61.5V205h-61.5z" class="st3"/>
      </g>
      <g>
        <path d="M439.6 183.5h56V205h-56z" class="st9"/>
        <text transform="translate(449.203 189.466)">
          <tspan x="0" y="0" class="st7 st4 st8">Information </tspan><tspan x="-7.7" y="8" class="st7 st4 st8">Systems Analyst</tspan>
        </text>
      </g>
    </g>
    <g>
      <g>
        <g>
          <path d="M363 147.6h60.5v21.9H363z" class="st1"/>
          <path d="M361.3 145.2h60.5v21.9h-60.5z" class="st3"/>
        </g>
        <g>
          <path d="M364 151.5h55.1v8.6H364z" class="st9"/>
          <text transform="translate(364.663 157.54)" class="st7 st4 st8">
            Data Coordinator
          </text>
        </g>
      </g>
    </g>
    <g>
      <g>
        <g>
          <path d="M440.3 147.6h60.5v21.9h-60.5z" class="st1"/>
          <path d="M438.6 145.2h60.5v21.9h-60.5z" class="st3"/>
        </g>
        <g>
          <path d="M441.3 148.5h55.1v17.9h-55.1z" class="st9"/>
          <text transform="translate(441.306 154.54)">
            <tspan x="0" y="0" class="st7 st4 st8">Network Systems </tspan><tspan x="15.8" y="8" class="st7 st4 st8">Analyst</tspan>
          </text>
        </g>
      </g>
    </g>
    <g id="lines_4_">
      <path d="M606.5 119.5v110.8M592 157h30M592 195h30" class="st6"/>
    </g>
    <g>
      <g>
        <g>
          <path d="M541.1 184.6h60.5v29.9h-60.5z" class="st1"/>
          <path d="M539.4 182.2h60.5v29.9h-60.5z" class="st3"/>
        </g>
        <g>
          <path d="M539.4 184.2h60.5v25.1h-60.5z" class="st9"/>
          <text transform="translate(556.877 190.224)">
            <tspan x="0" y="0" class="st7 st4 st8">Building </tspan><tspan x="-14.3" y="8" class="st7 st4 st8">Maintenance and </tspan><tspan x="-8.7" y="16" class="st7 st4 st8">Safety Officer</tspan>
          </text>
        </g>
      </g>
    </g>
    <g>
      <g>
        <g>
          <path d="M613.1 185.6h60.5v29.9h-60.5z" class="st1"/>
          <path d="M611.4 183.2h60.5v29.9h-60.5z" class="st3"/>
        </g>
        <g>
          <path d="M611.4 185.2h60.5v25.1h-60.5z" class="st9"/>
          <text transform="translate(625.653 191.224)">
            <tspan x="0" y="0" class="st7 st4 st8">Training &amp; </tspan><tspan x="-4.7" y="8" class="st7 st4 st8">Development </tspan><tspan x="-2.7" y="16" class="st7 st4 st8">Coordinator</tspan>
          </text>
        </g>
      </g>
    </g>
    <g id="director_2_">
      <path d="M554.8 101.2h112v33.1h-112z" class="st1"/>
      <path d="M552.3 97.9h112V131h-112z"/>
      <text transform="translate(586.214 111.45)">
        <tspan x="0" y="0" class="st3 st4 st5">Director of </tspan><tspan x="-15" y="12" class="st3 st4 st5">Human Resources</tspan>
      </text>
    </g>
    <g>
      <g>
        <path d="M613 147.5h61.5v25.9H613z" class="st1"/>
        <path d="M611.3 145.1h61.5V171h-61.5z" class="st3"/>
      </g>
      <g>
        <path d="M613.8 154.5h56V176h-56z" class="st9"/>
        <text transform="translate(618.33 160.466)" class="st7 st4 st8">
          Payroll Analyst
        </text>
      </g>
    </g>
    <g>
      <g>
        <g>
          <path d="M541.5 147.6H602v24.9h-60.5z" class="st1"/>
          <path d="M539.8 145.2h60.5v24.9h-60.5z" class="st3"/>
        </g>
        <g>
          <path d="M539.8 150.2h60.5v19.2h-60.5z" class="st9"/>
          <text transform="translate(550.984 156.224)">
            <tspan x="0" y="0" class="st7 st4 st8">Recruitment </tspan><tspan x="3.7" y="8" class="st7 st4 st8">Specialist</tspan>
          </text>
        </g>
      </g>
    </g>
    <g>
      <g>
        <g>
          <path d="M577.5 229.9H638v19.9h-60.5z" class="st1"/>
          <path d="M575.8 227.5h60.5v19.9h-60.5z" class="st3"/>
        </g>
        <g>
          <path d="M575.8 232.3h60.5v10.3h-60.5z" class="st9"/>
          <text transform="translate(590.11 238.308)" class="st7 st4 st8">
            Custodian
          </text>
        </g>
      </g>
    </g>
    <g id="lines_5_">
      <path d="M780 132v62M760 155h37M760 194h37" class="st6"/>
    </g>
    <g>
      <g>
        <g>
          <path d="M714.3 181.6h60.5v29.9h-60.5z" class="st1"/>
          <path d="M712.6 179.2h60.5v29.9h-60.5z" class="st3"/>
        </g>
        <g>
          <path d="M712.6 182.2h60.5v25.1h-60.5z" class="st9"/>
          <text transform="translate(724.95 188.224)">
            <tspan x="0" y="0" class="st7 st4 st8">Community </tspan><tspan x="1.4" y="7" class="st7 st4 st8">Resources </tspan><tspan x="2.5" y="14" class="st7 st4 st8">Specialist</tspan>
          </text>
        </g>
      </g>
    </g>
    <g>
      <g>
        <g>
          <path d="M788.9 181.6h60.5v29.9h-60.5z" class="st1"/>
          <path d="M787.2 179.2h60.5v29.9h-60.5z" class="st3"/>
        </g>
        <g>
          <path d="M787.2 182.2h60.5v25.1h-60.5z" class="st9"/>
          <text transform="translate(799.546 188.224)">
            <tspan x="0" y="0" class="st7 st4 st8">Community </tspan><tspan x="3.7" y="7" class="st7 st4 st8"> Services </tspan><tspan x="6.5" y="14" class="st7 st4 st8">Liaison</tspan>
          </text>
        </g>
      </g>
    </g>
    <g>
      <g>
        <g>
          <path d="M714.3 142.1h60.5V172h-60.5z" class="st1"/>
          <path d="M712.6 139.7h60.5v29.9h-60.5z" class="st3"/>
        </g>
        <g>
          <path d="M712.6 141.7h60.5v25.1h-60.5z" class="st9"/>
          <text transform="translate(722.293 147.694)">
            <tspan x="0" y="0" class="st7 st4 st8">Home Health </tspan><tspan x="-4" y="8" class="st7 st4 st8"> Care Specialist </tspan><tspan x="11.7" y="16" class="st7 st4 st8">Team</tspan>
          </text>
        </g>
      </g>
    </g>
    <g>
      <g>
        <g>
          <path d="M788.9 142.1h60.5V172h-60.5z" class="st1"/>
          <path d="M787.2 139.7h60.5v29.9h-60.5z" class="st3"/>
        </g>
        <g>
          <path d="M787.2 141.7h60.5v27.9h-60.5z" class="st9"/>
          <text transform="translate(799.546 147.694)">
            <tspan x="0" y="0" class="st7 st4 st8">Community </tspan><tspan x="3.6" y="7" class="st7 st4 st8">Outreach </tspan><tspan x="-1.6" y="14" class="st7 st4 st8"> Coordinator</tspan>
          </text>
        </g>
      </g>
    </g>
    <g id="director_3_">
      <path d="M723.8 101.2h112v33.1h-112z" class="st1"/>
      <path d="M721.3 97.9h112V131h-112z"/>
      <text transform="translate(740.25 111.45)">
        <tspan x="0" y="0" class="st3 st4 st5">Community-Based </tspan><tspan x="3.5" y="12" class="st3 st4 st5">Services Director</tspan>
      </text>
    </g>
    <g id="director_4_">
      <path d="M899 101.2h112v33.1H899z" class="st1"/>
      <path d="M896.5 97.9h112V131h-112z"/>
      <text transform="translate(909.446 111.45)">
        <tspan x="0" y="0" class="st3 st4 st5">Director of Regulatory </tspan><tspan x="-3.2" y="12" class="st3 st4 st5">Affairs and Compliance</tspan>
      </text>
    </g>
    <g id="conecttions">
      <path d="M521 48v27H75v25M521 75h437v25M432.3 75.8v23.7M252.8 75.8v23.7M605.3 75.8v23.7M783.3 75.8v23.7M521 60h68" class="st6"/>
    </g>
  </g>
</svg>
